<?xml version="1.0" encoding="utf-8"?>
<!-- Generator: Adobe Illustrator 21.0.2, SVG Export Plug-In . SVG Version: 6.00 Build 0)  -->
<svg version="1.1" id="Layer_1" xmlns="http://www.w3.org/2000/svg" xmlns:xlink="http://www.w3.org/1999/xlink" x="0px" y="0px"
	 viewBox="0 0 122 213" style="enable-background:new 0 0 122 213;" xml:space="preserve">
<style type="text/css">
	.st0{fill:url(#SVGID_1_);}
	.st1{fill:none;stroke:url(#SVGID_2_);stroke-width:4.6196;stroke-miterlimit:10;}
	.st2{clip-path:url(#SVGID_4_);}
	.st3{fill:none;stroke:#000000;stroke-width:8;stroke-miterlimit:10;}
	.st4{fill:none;stroke:#29ABE2;stroke-width:8;stroke-miterlimit:10;}
	.st5{fill:none;stroke:#29ABE2;stroke-width:7.1333;stroke-miterlimit:10;}
	.st6{fill:none;stroke:#29ABE2;stroke-width:4.6229;stroke-miterlimit:10;}
	.st7{fill:none;stroke:#C1272D;stroke-width:8;stroke-miterlimit:10;}
	.st8{fill:none;stroke:#C1272D;stroke-width:7.1333;stroke-miterlimit:10;}
	.st9{fill:none;stroke:#662D91;stroke-width:0.75;stroke-miterlimit:10;}
	.st10{fill:none;}
	.st11{fill:none;stroke:#FFFFFF;stroke-width:1.0149;stroke-miterlimit:10;}
	.st12{fill:none;stroke:#FFFFFF;stroke-width:0.6269;stroke-miterlimit:10;}
	.st13{fill:none;stroke:#FFFFFF;stroke-width:0.3831;stroke-miterlimit:10;}
	.st14{fill:none;stroke:#FFFFFF;stroke-width:0.2438;stroke-miterlimit:10;}
	.st15{fill:none;stroke:#FFFFFF;stroke-width:0.1393;stroke-miterlimit:10;}
	.st16{fill:none;stroke:#FFFFFF;stroke-width:8.955224e-02;stroke-miterlimit:10;}
	.st17{fill:none;stroke:#333333;stroke-width:1.0149;stroke-miterlimit:10;}
	.st18{fill:none;stroke:#000000;stroke-width:0.3831;stroke-miterlimit:10;}
	.st19{fill:none;stroke:#000000;stroke-width:0.2438;stroke-miterlimit:10;}
	.st20{fill:none;stroke:#000000;stroke-width:8.955224e-02;stroke-miterlimit:10;}
	.st21{fill:url(#SVGID_5_);}
	.st22{fill:url(#SVGID_6_);}
	.st23{fill:#4D4D4D;}
	.st24{fill:none;stroke:url(#SVGID_7_);stroke-width:9;stroke-miterlimit:10;}
	.st25{fill:none;stroke:#000000;stroke-miterlimit:10;}
	.st26{fill:none;stroke:url(#SVGID_8_);stroke-width:9;stroke-miterlimit:10;}
	.st27{fill:none;stroke:#0000FF;stroke-width:1.0149;stroke-miterlimit:10;}
	.st28{fill:none;stroke:#0000FF;stroke-width:0.6269;stroke-miterlimit:10;}
	.st29{fill:none;stroke:#0000FF;stroke-width:0.3831;stroke-miterlimit:10;}
	.st30{fill:none;stroke:#0000FF;stroke-width:0.2438;stroke-miterlimit:10;}
	.st31{fill:none;stroke:#0000FF;stroke-width:0.1393;stroke-miterlimit:10;}
	.st32{fill:none;stroke:#0000FF;stroke-width:8.955224e-02;stroke-miterlimit:10;}
	.st33{fill:none;stroke:#000000;stroke-width:6;stroke-miterlimit:10;}
	.st34{fill:none;stroke:#000000;stroke-width:5;stroke-miterlimit:10;}
	.st35{fill:none;stroke:url(#SVGID_9_);stroke-width:9;stroke-miterlimit:10;}
	.st36{clip-path:url(#SVGID_11_);}
	.st37{fill:none;stroke:#0000FF;stroke-width:3;stroke-miterlimit:10;}
	.st38{fill:none;stroke:#C1272D;stroke-width:2;stroke-miterlimit:10;}
	.st39{fill:none;stroke:#ED1C24;stroke-width:2;stroke-miterlimit:10;}
	.st40{fill:none;stroke:#0000FF;stroke-width:2;stroke-miterlimit:10;}
	.st41{fill:none;stroke:#0000FF;stroke-miterlimit:10;}
	.st42{fill:none;stroke:#ED1C24;stroke-width:0.6269;stroke-miterlimit:10;}
	.st43{fill:none;stroke:#ED1C24;stroke-width:1.0149;stroke-miterlimit:10;}
	.st44{fill:none;stroke:url(#SVGID_12_);stroke-width:9;stroke-miterlimit:10;}
	.st45{fill:none;stroke:url(#SVGID_13_);stroke-width:10;stroke-miterlimit:10;}
	.st46{fill:url(#SVGID_14_);}
	.st47{fill:none;stroke:url(#SVGID_15_);stroke-width:10;stroke-miterlimit:10;}
	.st48{fill:url(#SVGID_16_);}
	.st49{fill:url(#SVGID_17_);}
	.st50{fill:#FFFFFF;}
	.st51{fill:url(#SVGID_18_);}
	.st52{fill:url(#SVGID_19_);}
	.st53{fill:url(#SVGID_20_);}
	.st54{fill:none;stroke:url(#SVGID_21_);stroke-width:4.6196;stroke-miterlimit:10;}
	.st55{fill:url(#SVGID_22_);}
	.st56{fill:url(#SVGID_23_);}
	.st57{fill:url(#SVGID_24_);}
	.st58{fill:none;stroke:url(#SVGID_25_);stroke-width:7;stroke-miterlimit:10;}
	.st59{fill:none;stroke:url(#SVGID_26_);stroke-width:6;stroke-miterlimit:10;}
	.st60{fill:url(#SVGID_27_);}
	.st61{fill:url(#SVGID_28_);}
	.st62{fill:none;stroke:url(#SVGID_29_);stroke-width:5;stroke-miterlimit:10;}
	.st63{fill:url(#SVGID_30_);}
	.st64{fill:url(#SVGID_31_);}
	.st65{fill:none;stroke:url(#SVGID_32_);stroke-width:6;stroke-miterlimit:10;}
	.st66{fill:url(#SVGID_33_);}
	.st67{fill:url(#SVGID_34_);}
	.st68{fill:url(#SVGID_35_);}
	.st69{fill:url(#SVGID_36_);}
	.st70{fill:url(#SVGID_37_);}
	.st71{fill:url(#SVGID_38_);}
	.st72{fill:url(#SVGID_39_);}
	.st73{fill:url(#SVGID_40_);}
	.st74{fill:url(#SVGID_41_);}
	.st75{fill:url(#SVGID_42_);}
	.st76{fill:none;stroke:#FFFFFF;stroke-width:5;stroke-miterlimit:10;}
	.st77{fill:none;stroke:url(#SVGID_43_);stroke-width:3.6278;stroke-miterlimit:10;}
	.st78{fill:url(#SVGID_44_);}
	.st79{fill:url(#SVGID_45_);}
	.st80{fill:none;stroke:url(#SVGID_46_);stroke-width:3.6278;stroke-miterlimit:10;}
	.st81{fill:url(#SVGID_47_);}
	.st82{fill:url(#SVGID_48_);}
	.st83{fill:none;stroke:url(#SVGID_49_);stroke-width:3.628;stroke-miterlimit:10;}
	.st84{fill:url(#SVGID_50_);}
	.st85{fill:url(#SVGID_51_);}
	.st86{fill:url(#SVGID_52_);}
	.st87{fill:none;stroke:#FFFFFF;stroke-width:3.6443;stroke-miterlimit:10;}
	.st88{fill:none;stroke:#000000;stroke-width:3.5642;stroke-miterlimit:10;}
	.st89{fill:none;stroke:url(#SVGID_53_);stroke-width:6.2296;stroke-miterlimit:10;}
	.st90{fill:none;stroke:#B3B3B3;stroke-width:0.6269;stroke-miterlimit:10;}
	.st91{fill:none;stroke:#B3B3B3;stroke-width:1.0149;stroke-miterlimit:10;}
	.st92{fill:none;stroke:#B3B3B3;stroke-miterlimit:10;}
	.st93{fill:none;stroke:url(#SVGID_54_);stroke-width:8.9485;stroke-miterlimit:10;}
	.st94{fill:none;stroke:#B3B3B3;stroke-width:0.8886;stroke-miterlimit:10;}
	.st95{fill:none;stroke:#B3B3B3;stroke-width:1.4388;stroke-miterlimit:10;}
	.st96{fill:none;stroke:#B3B3B3;stroke-width:1.4176;stroke-miterlimit:10;}
	.st97{fill:none;stroke:#FFFFFF;stroke-width:26.6271;stroke-miterlimit:10;}
	.st98{fill:#CACACA;}
	.st99{fill:none;stroke:#FFFFFF;stroke-width:26;stroke-miterlimit:10;}
	.st100{fill:#FF0000;}
	.st101{fill:url(#SVGID_55_);}
	.st102{fill:none;stroke:#FF00FF;stroke-width:26;stroke-miterlimit:10;}
	.st103{fill:none;stroke:#C1272D;stroke-width:26.6271;stroke-miterlimit:10;}
	.st104{fill:url(#SVGID_56_);}
	.st105{fill:none;stroke:url(#SVGID_57_);stroke-width:30;stroke-miterlimit:10;}
	.st106{fill:url(#SVGID_58_);}
	.st107{fill:url(#SVGID_59_);}
	.st108{fill:none;stroke:#FF0000;stroke-width:0.25;stroke-miterlimit:10;}
	.st109{fill:none;stroke:#FF00FF;stroke-width:0.5;stroke-miterlimit:10;}
	.st110{fill:none;stroke:url(#SVGID_60_);stroke-width:4.9382;stroke-miterlimit:10;}
	.st111{fill:url(#SVGID_61_);}
	.st112{fill:url(#SVGID_62_);}
	.st113{fill:none;stroke:url(#SVGID_63_);stroke-width:11;stroke-miterlimit:10;}
	.st114{fill:url(#SVGID_64_);}
	.st115{fill:url(#SVGID_65_);}
	.st116{fill:none;stroke:url(#SVGID_66_);stroke-width:11;stroke-miterlimit:10;}
	.st117{fill:url(#SVGID_67_);}
	.st118{fill:url(#SVGID_68_);}
	.st119{fill:url(#SVGID_69_);}
	.st120{fill:none;stroke:url(#SVGID_70_);stroke-width:11;stroke-miterlimit:10;}
	.st121{fill:url(#SVGID_71_);}
	.st122{fill:url(#SVGID_72_);}
	.st123{fill:none;stroke:url(#SVGID_73_);stroke-width:11;stroke-miterlimit:10;}
	.st124{fill:url(#SVGID_74_);}
	.st125{fill:url(#SVGID_75_);}
	.st126{fill:none;stroke:url(#SVGID_76_);stroke-width:16.6245;stroke-miterlimit:10;}
	.st127{fill:url(#SVGID_77_);}
	.st128{fill:url(#SVGID_78_);}
	.st129{fill:none;stroke:url(#SVGID_79_);stroke-width:11;stroke-miterlimit:10;}
	.st130{fill:url(#SVGID_80_);}
	.st131{fill:url(#SVGID_81_);}
	.st132{fill:none;stroke:url(#SVGID_82_);stroke-width:11;stroke-miterlimit:10;}
	.st133{fill:none;stroke:url(#SVGID_83_);stroke-width:11;stroke-miterlimit:10;}
	.st134{fill:url(#SVGID_84_);}
	.st135{fill:url(#SVGID_85_);}
	.st136{fill:url(#SVGID_86_);}
	.st137{fill:none;stroke:url(#SVGID_87_);stroke-width:11;stroke-miterlimit:10;}
	.st138{fill:url(#SVGID_88_);}
	.st139{fill:url(#SVGID_89_);}
	.st140{fill:url(#SVGID_90_);}
	.st141{fill:url(#SVGID_91_);}
	.st142{fill:none;stroke:url(#SVGID_92_);stroke-width:14;stroke-miterlimit:10;}
	.st143{fill:url(#SVGID_93_);}
	.st144{fill:none;stroke:url(#SVGID_94_);stroke-width:11;stroke-miterlimit:10;}
	.st145{fill:url(#SVGID_95_);}
	.st146{fill:url(#SVGID_96_);}
	.st147{fill:none;stroke:url(#SVGID_97_);stroke-width:11;stroke-miterlimit:10;}
	.st148{fill:url(#SVGID_98_);}
	.st149{fill:url(#SVGID_99_);}
	.st150{fill:url(#SVGID_100_);}
	.st151{fill:url(#SVGID_101_);}
	.st152{fill:none;stroke:url(#SVGID_102_);stroke-width:8.8099;stroke-miterlimit:10;}
	.st153{fill:url(#SVGID_103_);}
	.st154{fill:none;stroke:url(#SVGID_104_);stroke-width:7.3913;stroke-miterlimit:10;}
	.st155{fill:url(#SVGID_105_);}
	.st156{fill:url(#SVGID_106_);}
	.st157{fill:none;stroke:url(#SVGID_107_);stroke-width:8.9512;stroke-miterlimit:10;}
	.st158{fill:url(#SVGID_108_);}
	.st159{fill:none;stroke:url(#SVGID_109_);stroke-width:8.9512;stroke-miterlimit:10;}
	.st160{fill:url(#SVGID_110_);}
	.st161{fill:url(#SVGID_111_);}
	.st162{fill:none;stroke:url(#SVGID_112_);stroke-width:8.9512;stroke-miterlimit:10;}
	.st163{fill:url(#SVGID_113_);}
	.st164{fill:url(#SVGID_114_);}
	.st165{fill:none;stroke:url(#SVGID_115_);stroke-width:11;stroke-miterlimit:10;}
	.st166{fill:url(#SVGID_116_);}
	.st167{fill:url(#SVGID_117_);}
	.st168{fill:url(#SVGID_118_);}
	.st169{fill:url(#SVGID_119_);}
	.st170{fill:none;stroke:url(#SVGID_120_);stroke-width:11;stroke-miterlimit:10;}
	.st171{fill:url(#SVGID_121_);}
	.st172{fill:url(#SVGID_122_);}
	.st173{fill:url(#SVGID_123_);}
	.st174{fill:url(#SVGID_124_);}
	.st175{fill:none;stroke:url(#SVGID_125_);stroke-width:7.0731;stroke-miterlimit:10;}
	.st176{fill:url(#SVGID_126_);}
	.st177{fill:none;stroke:url(#SVGID_127_);stroke-width:7.0731;stroke-miterlimit:10;}
	.st178{fill:url(#SVGID_128_);}
	.st179{fill:none;stroke:url(#SVGID_129_);stroke-width:8.9512;stroke-miterlimit:10;}
	.st180{fill:url(#SVGID_130_);}
	.st181{fill:url(#SVGID_131_);}
	.st182{fill:none;stroke:url(#SVGID_132_);stroke-width:8.9512;stroke-miterlimit:10;}
	.st183{fill:url(#SVGID_133_);}
	.st184{fill:url(#SVGID_134_);}
	.st185{fill:none;stroke:url(#SVGID_135_);stroke-width:8.9512;stroke-miterlimit:10;}
	.st186{fill:url(#SVGID_136_);}
	.st187{fill:none;stroke:url(#SVGID_137_);stroke-width:8.9512;stroke-miterlimit:10;}
	.st188{fill:url(#SVGID_138_);}
	.st189{fill:none;stroke:url(#SVGID_139_);stroke-width:8.9512;stroke-miterlimit:10;}
	.st190{fill:url(#SVGID_140_);}
	.st191{fill:none;stroke:url(#SVGID_141_);stroke-width:11;stroke-miterlimit:10;}
	.st192{fill:url(#SVGID_142_);}
	.st193{fill:url(#SVGID_143_);}
	.st194{fill:url(#SVGID_144_);}
	.st195{fill:url(#SVGID_145_);}
	.st196{fill:none;stroke:url(#SVGID_146_);stroke-width:11;stroke-miterlimit:10;}
	.st197{fill:url(#SVGID_147_);}
	.st198{fill:url(#SVGID_148_);}
	.st199{fill:url(#SVGID_149_);}
	.st200{fill:url(#SVGID_150_);}
	.st201{fill:none;stroke:url(#SVGID_151_);stroke-width:11;stroke-miterlimit:10;}
	.st202{fill:url(#SVGID_152_);}
	.st203{fill:url(#SVGID_153_);}
	.st204{fill:url(#SVGID_154_);}
	.st205{fill:url(#SVGID_155_);}
	.st206{fill:none;stroke:url(#SVGID_156_);stroke-width:11;stroke-miterlimit:10;}
	.st207{fill:url(#SVGID_157_);}
	.st208{fill:url(#SVGID_158_);}
	.st209{fill:url(#SVGID_159_);}
	.st210{fill:url(#SVGID_160_);}
	.st211{fill:none;stroke:url(#SVGID_161_);stroke-width:11;stroke-miterlimit:10;}
	.st212{fill:url(#SVGID_162_);}
	.st213{fill:url(#SVGID_163_);}
	.st214{fill:url(#SVGID_164_);}
	.st215{fill:url(#SVGID_165_);}
	.st216{fill:none;stroke:url(#SVGID_166_);stroke-width:11;stroke-miterlimit:10;}
	.st217{fill:url(#SVGID_167_);}
	.st218{fill:url(#SVGID_168_);}
	.st219{fill:url(#SVGID_169_);}
	.st220{fill:url(#SVGID_170_);}
	.st221{fill:none;stroke:url(#SVGID_171_);stroke-width:7.0731;stroke-miterlimit:10;}
	.st222{fill:url(#SVGID_172_);}
	.st223{fill:none;stroke:url(#SVGID_173_);stroke-width:7.0731;stroke-miterlimit:10;}
	.st224{fill:url(#SVGID_174_);}
	.st225{fill:none;stroke:url(#SVGID_175_);stroke-width:7.0731;stroke-miterlimit:10;}
	.st226{fill:url(#SVGID_176_);}
	.st227{fill:none;stroke:url(#SVGID_177_);stroke-width:7.0731;stroke-miterlimit:10;}
	.st228{fill:url(#SVGID_178_);}
	.st229{fill:none;stroke:url(#SVGID_179_);stroke-width:7.0731;stroke-miterlimit:10;}
	.st230{fill:url(#SVGID_180_);}
	.st231{fill:none;stroke:url(#SVGID_181_);stroke-width:7.0731;stroke-miterlimit:10;}
	.st232{fill:url(#SVGID_182_);}
	.st233{fill:url(#SVGID_183_);}
	.st234{fill:url(#SVGID_184_);}
	.st235{fill:url(#SVGID_185_);}
	.st236{fill:url(#SVGID_186_);}
	.st237{fill:#E41700;}
	.st238{fill:none;stroke:#E41700;stroke-width:4;stroke-miterlimit:10;}
	.st239{fill:none;stroke:#000000;stroke-width:4;stroke-miterlimit:10;}
	.st240{fill:none;stroke:#FFFFFF;stroke-width:4;stroke-miterlimit:10;}
</style>
<path class="st237" d="M122,113c0-3,0-5.4,0-7V0H0v106v9c0,0.3,0,0.5,0,0.8c10.2,0,34.3,0,51.8,0c-0.6,42.5-33.6,36.6-51.8,37
	c0,21.4,0,45.1,0,59.2c111.5,8.4,121.2-67.6,122-97h0V113z"/>
<g>
	<path class="st50" d="M35.5,37.7c0,4.4-3.6,8-8,8h-3.5v16h-4.5V24h8c4.4,0,8,3.6,8,8V37.7z M23.9,28.5v12.7h3.5
		c1.9,0,3.5-1.6,3.5-3.5V32c0-1.9-1.6-3.6-3.5-3.6H23.9z"/>
	<path class="st50" d="M55.8,24v4.4h-10v9h8.8v4.4h-8.8v15.3h10v4.4H41.4V24H55.8z"/>
	<path class="st50" d="M67.2,61.6h-4.5V24h8c4.4,0,8.1,3.6,8.1,8v9.3c0,2.1-1,4.1-2.4,5.6c1.7,1.6,2.7,3.8,2.7,6.1v8.6h-4.5V53
		c0-2-1.7-3.7-3.7-3.7h-3.8V61.6z M67.2,28.5v16.4H71c1.9,0,3.4-1.7,3.4-3.5V32c0-2-1.6-3.6-3.5-3.6H67.2z"/>
	<path class="st50" d="M91.2,37.6c0,1.9,1.9,3.1,4.1,3.3c4.2,0.3,8.3,3.2,8.3,7.6v5.4c0,4.4-3.8,8-8.4,8c-4.7,0-8.5-3.6-8.5-8v-3.6
		h4.4v3.6c0,1.9,1.8,3.6,4,3.6c2.2,0,4-1.7,4-3.6v-5.4c0-1.9-1.9-3.3-4-3.3c-4.5,0-8.4-3.2-8.4-7.6V32c0-4.4,3.8-8,8.5-8
		s8.4,3.6,8.4,8v3.8h-4.4V32c0-2-1.8-3.6-4-3.6c-2.3,0-4,1.7-4,3.6V37.6z"/>
</g>
<g>
	<path class="st50" d="M26.2,90.9l-0.6-2.7h-3.1l-0.6,2.7h-2.6L23,72.6h2l3.8,18.2H26.2z M25.4,86L24,78.7c-0.4,2.3-0.8,4.6-1.3,7.3
		H25.4z"/>
	<path class="st50" d="M31.4,87.1V76.5c0-2.1,2.1-3.9,4.6-3.9c2.3,0,4.1,1.7,4.1,3.9v1.2h-2.2v-1.2c0-0.9-0.9-1.7-1.9-1.7
		c-1.3,0-2.4,0.8-2.4,1.7v10.6c0,0.9,1.1,1.7,2.4,1.7c1,0,1.9-0.8,1.9-1.7v-1.3H40v1.3c0,2.1-1.8,3.9-4.1,3.9
		C33.5,91,31.4,89.3,31.4,87.1z"/>
	<path class="st50" d="M49.6,90.9L49,88.2h-3.1l-0.6,2.7h-2.6l3.7-18.2h2l3.8,18.2H49.6z M48.8,86l-1.4-7.3C47,81,46.6,83.3,46.1,86
		H48.8z"/>
	<path class="st50" d="M55.2,90.9V72.6H59c2,0,3.9,1.6,3.9,3.7v10.9c0,2.1-1.9,3.7-3.9,3.7H55.2z M57.3,74.7v14H59
		c0.9,0,1.7-0.7,1.7-1.6V76.3c0-0.9-0.8-1.6-1.7-1.6H57.3z"/>
	<path class="st50" d="M73.5,72.6v2.1h-4.9v4.4h4.3v2.1h-4.3v7.4h4.9v2.1h-7V72.6H73.5z"/>
	<path class="st50" d="M83.5,90.9h-1.9l-2.7-10v10h-2.1V72.6h2.3l3.4,13.8L86,72.6H88v18.2h-2.2v-9.9L83.5,90.9z"/>
	<path class="st50" d="M93.7,90.9h-2.1V72.6h2.1V90.9z"/>
	<path class="st50" d="M104.6,72.6v2.1h-4.9v4.4h4.3v2.1h-4.3v7.4h4.9v2.1h-7V72.6H104.6z"/>
</g>
</svg>
